HIERARCHY
ROOT Pelvis
{
	OFFSET 0.000000 0.000000 0.000000
	CHANNELS 6 Xposition Yposition Zposition Xrotation Yrotation Zrotation
	JOINT LeftUpLeg_virtual
	{
		OFFSET 0.000000 0.000000 0.000000
		CHANNELS 3 Xrotation Yrotation Zrotation
		JOINT LeftUpLeg
		{
			OFFSET 18.735201 -5.666702 -4.541200
			CHANNELS 3 Xrotation Yrotation Zrotation
			JOINT LeftLeg
			{
				OFFSET -0.021200 -31.938179 0.493100
				CHANNELS 3 Xrotation Yrotation Zrotation
				JOINT LeftFoot
				{
					OFFSET 0.021200 -31.938179 -4.336299
					CHANNELS 3 Xrotation Yrotation Zrotation
					JOINT LeftToeBase
					{
						OFFSET 0.943001 -26.722000 15.023500
						CHANNELS 3 Xrotation Yrotation Zrotation
						End Site
						{
							OFFSET 0 0 0
						}
					}
				}
			}
		}
	}
	JOINT RightUpLeg_virtual
	{
		OFFSET 0.000000 0.000000 0.000000
		CHANNELS 3 Xrotation Yrotation Zrotation
		JOINT RightUpLeg
		{
			OFFSET -18.735201 -5.666702 -4.541200
			CHANNELS 3 Xrotation Yrotation Zrotation
			JOINT RightLeg
			{
				OFFSET 0.018946 -31.938133 0.493100
				CHANNELS 3 Xrotation Yrotation Zrotation
				JOINT RightFoot
				{
					OFFSET -0.018946 -31.938126 -4.336299
					CHANNELS 3 Xrotation Yrotation Zrotation
					JOINT RightToeBase
					{
						OFFSET -0.943001 -26.722004 15.023500
						CHANNELS 3 Xrotation Yrotation Zrotation
						End Site
						{
							OFFSET 0 0 0
						}
					}
				}
			}
		}
	}
	JOINT Hips_virtual
	{
		OFFSET 0.000000 0.000000 0.000000
		CHANNELS 3 Xrotation Yrotation Zrotation
		JOINT Hips
		{
			OFFSET -0.000000 -0.000000 -0.000000
			CHANNELS 3 Xrotation Yrotation Zrotation
			JOINT Spine
			{
				OFFSET 0.000000 10.199997 -0.299500
				CHANNELS 3 Xrotation Yrotation Zrotation
				JOINT Spine1
				{
					OFFSET 0.000000 11.900002 -1.516600
					CHANNELS 3 Xrotation Yrotation Zrotation
					JOINT Spine2
					{
						OFFSET 0.000000 13.600006 -2.842500
						CHANNELS 3 Xrotation Yrotation Zrotation
						JOINT Neck_virtual
						{
							OFFSET 0.000000 0.000000 0.000000
							CHANNELS 3 Xrotation Yrotation Zrotation
							JOINT Neck
							{
								OFFSET 0.000000 9.624100 -2.890100
								CHANNELS 3 Xrotation Yrotation Zrotation
								JOINT Head
								{
									OFFSET 0.000000 14.068802 -1.351900
									CHANNELS 3 Xrotation Yrotation Zrotation
									End Site
									{
										OFFSET 0 0 0
									}
								}
							}
						}
						JOINT LeftShoulder_virtual
						{
							OFFSET 0.000000 0.000000 0.000000
							CHANNELS 3 Xrotation Yrotation Zrotation
							JOINT LeftShoulder
							{
								OFFSET 15.263000 10.923401 -0.547700
								CHANNELS 3 Xrotation Yrotation Zrotation
								JOINT LeftArm
								{
									OFFSET 25.438599 -2.830597 -13.032500
									CHANNELS 3 Xrotation Yrotation Zrotation
									JOINT LeftForeArm
									{
										OFFSET 29.960503 0.000000 0.000000
										CHANNELS 3 Xrotation Yrotation Zrotation
										JOINT LeftHand
										{
											OFFSET 27.849251 0.000000 0.000000
											CHANNELS 3 Xrotation Yrotation Zrotation
											End Site
											{
												OFFSET 0 0 0
											}
										}
									}
								}
							}
						}
						JOINT RightShoulder_virtual
						{
							OFFSET 0.000000 0.000000 0.000000
							CHANNELS 3 Xrotation Yrotation Zrotation
							JOINT RightShoulder
							{
								OFFSET -15.263000 10.923401 -0.547700
								CHANNELS 3 Xrotation Yrotation Zrotation
								JOINT RightArm
								{
									OFFSET -25.438599 -2.830597 -13.032500
									CHANNELS 3 Xrotation Yrotation Zrotation
									JOINT RightForeArm
									{
										OFFSET -29.960503 0.000000 0.000000
										CHANNELS 3 Xrotation Yrotation Zrotation
										JOINT RightHand
										{
											OFFSET -27.849251 0.000000 0.000000
											CHANNELS 3 Xrotation Yrotation Zrotation
											End Site
											{
												OFFSET 0 0 0
											}
										}
									}
								}
							}
						}
					}
				}
			}
		}
	}
}
MOTION
Frames: 10
Frame Time: 0.03333333
11.325916 89.048920 2.312778 0.000000 0.000000 0.000000 5.356088 -49.847749 3.796946 -16.297690 12.451602 2.956775 34.169264 15.737191 7.862087 -17.074138 21.206797 -16.076271 0.000000 0.000000 0.000000 4.765237 -48.335907 3.141738 -18.078025 -33.662072 -17.113896 35.779147 -7.067377 -3.579311 -19.029124 -3.636586 12.598421 0.000000 0.000000 0.000000 5.011799 -48.085184 3.704653 -0.805201 0.343487 -0.455553 12.012521 -5.539854 2.037959 -0.172501 -4.255240 -1.030574 0.000000 0.000000 0.000000 -7.926665 -4.154358 -1.620651 -1.135507 -1.585609 -0.476701 0.000000 0.000000 0.000000 -6.837151 -4.997641 -2.228928 -1.148144 -3.333831 -1.897049 9.829306 7.204135 -57.494921 0.548999 -43.419967 -1.513672 0.000000 0.000000 0.000000 -7.055535 -3.834447 -0.750396 0.213817 -2.389802 -2.965752 3.242163 9.040940 71.624581 0.804898 44.977663 0.693497 0.000000 0.000000 0.000000 
10.831503 88.998802 1.492271 0.000000 0.000000 0.000000 5.178490 -53.229461 4.060734 -15.764082 13.926387 3.812714 35.028471 16.917988 7.350378 -15.530431 21.985926 -16.952000 0.000000 0.000000 0.000000 4.800257 -51.678792 3.554105 -16.624592 -33.173402 -17.079610 34.199508 -7.439346 -3.514800 -19.254891 -4.730102 14.343513 0.000000 0.000000 0.000000 4.884794 -51.350653 3.974968 -0.840336 0.266904 -0.466452 11.914635 -5.545880 1.881341 -0.500342 -4.098767 -0.920886 0.000000 0.000000 0.000000 -8.118070 -4.062445 -1.439073 -1.154325 -1.460624 -0.514214 0.000000 0.000000 0.000000 -7.075824 -4.894291 -2.108176 -0.902420 -3.966000 -1.006700 9.771575 7.441768 -56.878837 0.669669 -43.491906 -1.393442 0.000000 0.000000 0.000000 -7.232650 -3.742550 -0.588259 0.115785 -1.517870 -3.008649 2.963356 7.323186 71.578265 0.576275 44.316859 0.841152 0.000000 0.000000 0.000000 
10.226081 88.970757 0.486511 0.000000 0.000000 0.000000 4.531489 -55.936090 3.757990 -16.608530 15.290608 5.538640 37.205618 17.629692 6.546258 -13.412050 22.097993 -17.190268 0.000000 0.000000 0.000000 4.339994 -54.536916 3.399603 -15.945237 -32.635812 -16.809808 33.334793 -7.913434 -3.125227 -19.365103 -5.731366 14.878565 0.000000 0.000000 0.000000 4.504450 -54.175278 3.862008 -0.803331 0.153044 -0.497351 11.943626 -5.182459 1.734399 -0.795134 -3.979232 -0.717866 0.000000 0.000000 0.000000 -8.240239 -4.015888 -1.194057 -1.236549 -1.388131 -0.537702 0.000000 0.000000 0.000000 -7.253451 -4.810322 -1.904007 -0.686040 -4.512733 -0.191432 9.495761 7.357987 -56.491006 0.734705 -43.168011 -1.259314 0.000000 0.000000 0.000000 -7.342394 -3.697546 -0.376149 0.033503 -0.820776 -2.935657 2.565591 5.733208 71.192988 0.329741 43.144003 0.984061 0.000000 0.000000 0.000000 
9.487720 89.036690 -0.592560 0.000000 0.000000 0.000000 3.532563 -58.122758 3.028611 -18.495374 16.172211 7.957066 40.150529 17.675034 5.652119 -11.190490 21.529422 -16.632639 0.000000 0.000000 0.000000 3.348349 -56.922670 2.692560 -15.628561 -31.922255 -16.159959 33.036959 -8.494008 -2.693794 -19.220320 -6.623363 14.298712 0.000000 0.000000 0.000000 3.859884 -56.564321 3.417587 -0.690706 -0.004493 -0.659024 12.076644 -4.514004 1.570904 -1.052235 -3.886965 -0.443294 0.000000 0.000000 0.000000 -8.259861 -4.007006 -0.904196 -1.353703 -1.359182 -0.557299 0.000000 0.000000 0.000000 -7.371988 -4.739928 -1.631453 -0.507102 -4.975064 0.489775 9.104684 6.826202 -56.346052 0.737752 -42.559704 -1.137857 0.000000 0.000000 0.000000 -7.388629 -3.685215 -0.124306 -0.036901 -0.292358 -2.716257 2.095152 4.253407 70.570443 0.081044 41.413431 1.092167 0.000000 0.000000 0.000000 
8.653642 89.228752 -1.666943 0.000000 0.000000 0.000000 2.445065 -59.929924 2.161721 -20.905046 16.364194 10.681186 42.838506 16.997416 4.837145 -9.124729 20.203684 -15.555961 0.000000 0.000000 0.000000 2.068033 -58.906632 1.714078 -15.129950 -30.912179 -14.899346 32.684101 -9.026496 -2.472408 -18.638799 -7.187995 13.372915 0.000000 0.000000 0.000000 2.997092 -58.586071 2.739015 -0.586833 -0.104229 -0.812836 12.283443 -3.609782 1.389260 -1.269217 -3.798614 -0.117623 0.000000 0.000000 0.000000 -8.195752 -4.009079 -0.587486 -1.470656 -1.356868 -0.586154 0.000000 0.000000 0.000000 -7.456130 -4.663768 -1.309981 -0.384681 -5.344116 1.003700 8.764304 5.798288 -56.422390 0.678222 -41.835465 -1.049454 0.000000 0.000000 0.000000 -7.387125 -3.677154 0.151469 -0.105651 0.145496 -2.359196 1.670251 2.825079 69.751319 -0.144696 39.337836 1.133787 0.000000 0.000000 0.000000 
7.754174 89.529480 -2.659767 0.000000 0.000000 0.000000 1.399522 -61.535770 1.329982 -23.512354 16.010512 13.282920 44.803193 15.616061 4.085087 -7.046055 18.181035 -14.321963 0.000000 0.000000 0.000000 0.711531 -60.619602 0.661879 -14.241658 -29.694862 -13.129578 31.898978 -9.476781 -2.424457 -17.720084 -7.369728 12.613806 0.000000 0.000000 0.000000 1.971871 -60.365950 1.938939 -0.489337 -0.147171 -0.944213 12.531197 -2.560698 1.207619 -1.462314 -3.693956 0.231379 0.000000 0.000000 0.000000 -8.067916 -3.995630 -0.263560 -1.562771 -1.370751 -0.636236 0.000000 0.000000 0.000000 -7.533899 -4.558924 -0.961911 -0.318890 -5.618108 1.337029 8.625094 4.414099 -56.617928 0.545999 -41.185966 -1.019144 0.000000 0.000000 0.000000 -7.378529 -3.650191 0.427051 -0.185046 0.492313 -1.886749 1.394126 1.275411 68.729373 -0.331321 37.279292 1.130678 0.000000 0.000000 0.000000 
6.797767 89.853889 -3.455944 0.000000 0.000000 0.000000 0.329438 -63.031649 0.519111 -26.267258 15.438249 15.466396 46.178902 13.697513 3.268564 -4.630074 15.703710 -13.123559 0.000000 0.000000 0.000000 -0.700191 -62.134764 -0.411382 -13.091716 -28.465899 -11.135187 30.987878 -9.942159 -2.389787 -16.739402 -7.323094 12.047384 0.000000 0.000000 0.000000 0.799426 -61.936572 1.054846 -0.435365 -0.134738 -1.021208 12.767998 -1.476981 1.069269 -1.644275 -3.542519 0.561940 0.000000 0.000000 0.000000 -7.943233 -3.927665 0.043138 -1.617674 -1.387463 -0.713887 0.000000 0.000000 0.000000 -7.625786 -4.406093 -0.616218 -0.306656 -5.788982 1.521967 8.684125 2.771883 -56.816816 0.356438 -40.749506 -1.039518 0.000000 0.000000 0.000000 -7.376737 -3.573388 0.669535 -0.274883 0.730346 -1.346469 1.366942 -0.507258 67.556124 -0.489877 35.481207 1.098706 0.000000 0.000000 0.000000 
5.830845 90.139801 -4.042583 0.000000 0.000000 0.000000 -0.890364 -64.481453 -0.375044 -28.988228 14.697285 16.986771 47.120123 11.417987 2.405957 -2.369746 13.014797 -11.961775 0.000000 0.000000 0.000000 -2.115688 -63.544788 -1.475213 -11.913416 -27.321418 -9.186649 30.250232 -10.529074 -2.323639 -15.779267 -7.203833 11.438251 0.000000 0.000000 0.000000 -0.494386 -63.435484 0.114825 -0.475037 -0.062946 -1.079525 12.977788 -0.428682 1.010522 -1.812118 -3.326549 0.850440 0.000000 0.000000 0.000000 -7.867806 -3.780245 0.311384 -1.634671 -1.401512 -0.815341 0.000000 0.000000 0.000000 -7.737029 -4.183920 -0.300514 -0.340040 -5.870000 1.546567 8.859106 0.985515 -56.999971 0.109686 -40.542920 -1.114809 0.000000 0.000000 0.000000 -7.404334 -3.424858 0.861263 -0.361278 0.835022 -0.806681 1.516416 -2.452293 66.323630 -0.612457 33.926424 1.045793 0.000000 0.000000 0.000000 
4.860610 90.377289 -4.543461 0.000000 0.000000 0.000000 -2.333478 -65.942143 -1.421073 -31.326055 13.597056 17.664030 47.593004 8.837457 1.703771 -1.045854 10.327359 -10.810750 0.000000 0.000000 0.000000 -3.598674 -64.975398 -2.600783 -10.800885 -26.135055 -7.438179 29.798766 -11.288214 -2.275888 -15.288369 -7.178690 10.542517 0.000000 0.000000 0.000000 -1.886882 -64.904603 -0.860243 -0.538290 -0.078958 -1.172583 13.142240 0.513418 1.047026 -1.967480 -3.016690 1.073536 0.000000 0.000000 0.000000 -7.852638 -3.522925 0.529178 -1.623336 -1.409234 -0.930881 0.000000 0.000000 0.000000 -7.847959 -3.871639 -0.036693 -0.400998 -5.862832 1.401138 9.012372 -0.853142 -57.197316 -0.150501 -40.488432 -1.220565 0.000000 0.000000 0.000000 -7.464623 -3.170496 0.993778 -0.434960 0.789803 -0.343812 1.680582 -4.318688 65.236564 -0.688969 32.427477 0.966801 0.000000 0.000000 0.000000 
3.901424 90.589813 -4.868587 0.000000 0.000000 0.000000 -3.971124 -67.492924 -2.624349 -32.894031 12.044875 17.534569 47.415624 6.204687 1.302798 -0.861733 7.928362 -9.604610 0.000000 0.000000 0.000000 -5.176611 -66.527716 -3.797529 -9.868924 -24.634807 -5.963868 29.682086 -12.075685 -2.337665 -15.467360 -7.198548 9.710834 0.000000 0.000000 0.000000 -3.364409 -66.366633 -1.878666 -0.646576 -0.161340 -1.274222 13.250027 1.313082 1.156219 -2.090319 -2.586710 1.233597 0.000000 0.000000 0.000000 -7.889443 -3.134915 0.686598 -1.595825 -1.407247 -1.045382 0.000000 0.000000 0.000000 -7.939168 -3.444124 0.171042 -0.483025 -5.766120 1.071314 9.017232 -2.704525 -57.453113 -0.390459 -40.436899 -1.342075 0.000000 0.000000 0.000000 -7.555473 -2.785616 1.074599 -0.488836 0.632865 -0.017820 1.741401 -5.739789 64.444932 -0.728295 30.775302 0.845953 0.000000 0.000000 0.000000 
